<?xml version="1.0" encoding="UTF-8"?>
<svg xmlns="http://www.w3.org/2000/svg" xmlns:xlink="http://www.w3.org/1999/xlink" width="37.5pt" height="37.499999pt" viewBox="0 0 37.5 37.499999" version="1.2">
<defs>
<clipPath id="clip1">
  <path d="M 4.761719 8 L 13 8 L 13 24 L 4.761719 24 Z M 4.761719 8 "/>
</clipPath>
<clipPath id="clip2">
  <path d="M 20 5.773438 L 24 5.773438 L 24 8 L 20 8 Z M 20 5.773438 "/>
</clipPath>
<clipPath id="clip3">
  <path d="M 7 5.773438 L 32.511719 5.773438 L 32.511719 33.523438 L 7 33.523438 Z M 7 5.773438 "/>
</clipPath>
</defs>
<g id="surface1">
<path style=" stroke:none;fill-rule:nonzero;fill:rgb(45.098877%,45.098877%,45.098877%);fill-opacity:1;" d="M 18.75 1.351562 C 18.179688 1.351562 17.613281 1.382812 17.042969 1.4375 C 16.476562 1.492188 15.914062 1.574219 15.355469 1.6875 C 14.796875 1.796875 14.246094 1.9375 13.699219 2.101562 C 13.152344 2.269531 12.617188 2.460938 12.089844 2.675781 C 11.566406 2.894531 11.050781 3.140625 10.546875 3.40625 C 10.046875 3.675781 9.558594 3.96875 9.082031 4.285156 C 8.609375 4.601562 8.152344 4.941406 7.710938 5.300781 C 7.269531 5.664062 6.847656 6.046875 6.445312 6.449219 C 6.042969 6.851562 5.660156 7.273438 5.300781 7.714844 C 4.9375 8.15625 4.597656 8.613281 4.28125 9.085938 C 3.964844 9.558594 3.671875 10.046875 3.40625 10.550781 C 3.136719 11.054688 2.890625 11.566406 2.675781 12.09375 C 2.457031 12.621094 2.265625 13.15625 2.097656 13.703125 C 1.933594 14.246094 1.796875 14.800781 1.683594 15.359375 C 1.574219 15.917969 1.488281 16.480469 1.433594 17.046875 C 1.378906 17.613281 1.351562 18.183594 1.351562 18.753906 C 1.351562 19.324219 1.378906 19.890625 1.433594 20.457031 C 1.488281 21.027344 1.574219 21.589844 1.683594 22.148438 C 1.796875 22.707031 1.933594 23.257812 2.097656 23.804688 C 2.265625 24.347656 2.457031 24.886719 2.675781 25.410156 C 2.890625 25.9375 3.136719 26.453125 3.40625 26.957031 C 3.671875 27.457031 3.964844 27.945312 4.28125 28.417969 C 4.597656 28.894531 4.9375 29.351562 5.300781 29.792969 C 5.660156 30.230469 6.042969 30.652344 6.445312 31.054688 C 6.847656 31.460938 7.269531 31.84375 7.710938 32.203125 C 8.152344 32.566406 8.609375 32.902344 9.082031 33.21875 C 9.558594 33.539062 10.046875 33.828125 10.546875 34.097656 C 11.050781 34.367188 11.566406 34.609375 12.089844 34.828125 C 12.617188 35.046875 13.152344 35.238281 13.699219 35.402344 C 14.246094 35.570312 14.796875 35.707031 15.355469 35.820312 C 15.914062 35.929688 16.476562 36.011719 17.042969 36.070312 C 17.613281 36.125 18.179688 36.152344 18.75 36.152344 C 19.320312 36.152344 19.886719 36.125 20.457031 36.070312 C 21.023438 36.011719 21.585938 35.929688 22.144531 35.820312 C 22.703125 35.707031 23.253906 35.570312 23.800781 35.402344 C 24.347656 35.238281 24.882812 35.046875 25.410156 34.828125 C 25.933594 34.609375 26.449219 34.367188 26.953125 34.097656 C 27.453125 33.828125 27.941406 33.539062 28.417969 33.21875 C 28.890625 32.902344 29.347656 32.566406 29.789062 32.203125 C 30.230469 31.84375 30.652344 31.460938 31.054688 31.054688 C 31.457031 30.652344 31.839844 30.230469 32.199219 29.792969 C 32.5625 29.351562 32.902344 28.894531 33.21875 28.417969 C 33.535156 27.945312 33.828125 27.457031 34.09375 26.957031 C 34.363281 26.453125 34.605469 25.9375 34.824219 25.410156 C 35.042969 24.886719 35.234375 24.347656 35.402344 23.804688 C 35.566406 23.257812 35.703125 22.707031 35.816406 22.148438 C 35.925781 21.589844 36.011719 21.027344 36.066406 20.457031 C 36.121094 19.890625 36.148438 19.324219 36.148438 18.753906 C 36.148438 18.183594 36.121094 17.613281 36.066406 17.046875 C 36.011719 16.480469 35.925781 15.917969 35.816406 15.359375 C 35.703125 14.800781 35.566406 14.246094 35.402344 13.703125 C 35.234375 13.15625 35.042969 12.621094 34.824219 12.09375 C 34.605469 11.566406 34.363281 11.054688 34.09375 10.550781 C 33.828125 10.046875 33.535156 9.558594 33.21875 9.085938 C 32.902344 8.613281 32.5625 8.15625 32.199219 7.714844 C 31.839844 7.273438 31.457031 6.851562 31.054688 6.449219 C 30.652344 6.046875 30.230469 5.664062 29.789062 5.300781 C 29.347656 4.941406 28.890625 4.601562 28.417969 4.285156 C 27.941406 3.96875 27.453125 3.675781 26.953125 3.40625 C 26.449219 3.140625 25.933594 2.894531 25.410156 2.675781 C 24.882812 2.460938 24.347656 2.269531 23.800781 2.101562 C 23.253906 1.9375 22.703125 1.796875 22.144531 1.6875 C 21.585938 1.574219 21.023438 1.492188 20.457031 1.4375 C 19.886719 1.382812 19.320312 1.351562 18.75 1.351562 Z M 18.75 1.351562 "/>
<path style=" stroke:none;fill-rule:nonzero;fill:rgb(100%,100%,100%);fill-opacity:1;" d="M 11.941406 10.664062 L 7.550781 11.960938 C 7.335938 12.027344 7.140625 12.175781 7.035156 12.371094 C 6.925781 12.566406 6.902344 12.804688 6.96875 13.019531 L 9.109375 20.203125 L 9.5625 18.6875 L 7.8125 12.78125 L 11.664062 11.65625 Z M 11.941406 10.664062 "/>
<g clip-path="url(#clip1)" clip-rule="nonzero">
<path style=" stroke:none;fill-rule:nonzero;fill:rgb(100%,100%,100%);fill-opacity:1;" d="M 8.203125 23.230469 L 8.65625 21.714844 L 5.671875 11.636719 L 12.246094 9.691406 L 12.550781 8.695312 L 5.410156 10.816406 C 5.195312 10.878906 5 11.03125 4.890625 11.226562 C 4.785156 11.421875 4.761719 11.65625 4.828125 11.875 Z M 8.203125 23.230469 "/>
</g>
<g clip-path="url(#clip2)" clip-rule="nonzero">
<path style=" stroke:none;fill-rule:nonzero;fill:rgb(100%,100%,100%);fill-opacity:1;" d="M 22.476562 7.117188 L 23.472656 7.417969 L 23.191406 6.445312 C 23.0625 6.054688 22.714844 5.816406 22.347656 5.816406 C 22.261719 5.816406 22.175781 5.839844 22.109375 5.863281 L 20.164062 6.445312 L 21.675781 6.898438 L 22.347656 6.683594 Z M 22.476562 7.117188 "/>
</g>
<g clip-path="url(#clip3)" clip-rule="nonzero">
<path style=" stroke:none;fill-rule:nonzero;fill:rgb(100%,100%,100%);fill-opacity:1;" d="M 32.382812 11.226562 C 32.273438 11.03125 32.078125 10.878906 31.863281 10.816406 L 15.1875 5.863281 C 15.101562 5.839844 15.015625 5.816406 14.929688 5.816406 C 14.558594 5.816406 14.214844 6.054688 14.105469 6.445312 L 7.855469 27.425781 C 7.789062 27.640625 7.8125 27.878906 7.921875 28.074219 C 8.027344 28.269531 8.222656 28.421875 8.4375 28.484375 L 25.117188 33.4375 C 25.203125 33.460938 25.289062 33.480469 25.351562 33.480469 C 25.722656 33.480469 26.066406 33.242188 26.175781 32.855469 L 32.425781 11.851562 C 32.511719 11.679688 32.492188 11.441406 32.382812 11.226562 Z M 25.375 32.636719 L 8.699219 27.683594 L 14.929688 6.683594 L 31.605469 11.636719 Z M 25.375 32.636719 "/>
</g>
<path style=" stroke:none;fill-rule:nonzero;fill:rgb(100%,100%,100%);fill-opacity:1;" d="M 15.859375 14.144531 L 16.613281 14.578125 C 16.703125 14.644531 16.722656 14.773438 16.636719 14.835938 L 15.945312 15.398438 C 15.835938 15.488281 15.902344 15.679688 16.03125 15.679688 C 16.03125 15.679688 16.054688 15.679688 16.054688 15.679688 L 16.917969 15.574219 C 16.917969 15.574219 16.941406 15.574219 16.941406 15.574219 C 17.046875 15.574219 17.113281 15.679688 17.089844 15.769531 L 16.851562 16.632812 C 16.832031 16.742188 16.917969 16.828125 17.003906 16.828125 C 17.046875 16.828125 17.070312 16.804688 17.113281 16.785156 L 17.761719 16.179688 C 17.78125 16.15625 17.828125 16.136719 17.871094 16.136719 C 17.933594 16.136719 18 16.179688 18.019531 16.242188 L 18.324219 17.066406 C 18.34375 17.128906 18.410156 17.171875 18.476562 17.171875 C 18.539062 17.171875 18.605469 17.128906 18.625 17.042969 L 18.820312 16.15625 C 18.84375 16.09375 18.90625 16.027344 18.972656 16.027344 C 18.996094 16.027344 19.039062 16.027344 19.058594 16.046875 L 19.792969 16.523438 C 19.816406 16.546875 19.859375 16.546875 19.882812 16.546875 C 19.988281 16.546875 20.074219 16.4375 20.03125 16.328125 L 19.6875 15.507812 C 19.644531 15.398438 19.707031 15.292969 19.816406 15.292969 L 20.703125 15.226562 C 20.855469 15.226562 20.898438 15.011719 20.769531 14.925781 L 20.011719 14.492188 C 19.925781 14.425781 19.902344 14.296875 19.988281 14.230469 L 20.679688 13.667969 C 20.789062 13.582031 20.726562 13.386719 20.59375 13.386719 C 20.59375 13.386719 20.574219 13.386719 20.574219 13.386719 L 19.707031 13.496094 C 19.707031 13.496094 19.6875 13.496094 19.6875 13.496094 C 19.578125 13.496094 19.511719 13.386719 19.535156 13.300781 L 19.773438 12.457031 C 19.792969 12.351562 19.707031 12.265625 19.621094 12.265625 C 19.578125 12.265625 19.558594 12.285156 19.511719 12.308594 L 18.863281 12.914062 C 18.84375 12.933594 18.800781 12.957031 18.757812 12.957031 C 18.691406 12.957031 18.625 12.914062 18.605469 12.847656 L 18.300781 12.027344 C 18.28125 11.960938 18.214844 11.917969 18.152344 11.917969 C 18.085938 11.917969 18.019531 11.960938 18 12.046875 L 17.804688 12.957031 C 17.78125 13.019531 17.71875 13.085938 17.652344 13.085938 C 17.632812 13.085938 17.589844 13.085938 17.566406 13.0625 L 16.832031 12.589844 C 16.808594 12.566406 16.765625 12.566406 16.746094 12.566406 C 16.636719 12.566406 16.550781 12.675781 16.59375 12.78125 L 16.941406 13.605469 C 16.984375 13.710938 16.917969 13.820312 16.808594 13.820312 L 15.921875 13.886719 C 15.773438 13.863281 15.726562 14.058594 15.859375 14.144531 Z M 17.695312 14.167969 C 17.738281 14.082031 17.78125 13.992188 17.804688 13.90625 C 17.976562 13.886719 18.152344 13.820312 18.300781 13.691406 C 18.453125 13.757812 18.605469 13.800781 18.777344 13.800781 C 18.777344 13.800781 18.777344 13.800781 18.800781 13.800781 C 18.820312 13.863281 18.863281 13.90625 18.90625 13.972656 C 18.972656 14.058594 19.039062 14.125 19.125 14.1875 C 19.101562 14.273438 19.101562 14.363281 19.101562 14.46875 C 19.101562 14.554688 19.125 14.644531 19.144531 14.707031 C 19.082031 14.773438 19.015625 14.835938 18.972656 14.925781 C 18.929688 15.011719 18.886719 15.097656 18.863281 15.183594 C 18.691406 15.207031 18.519531 15.269531 18.367188 15.398438 C 18.214844 15.335938 18.0625 15.292969 17.890625 15.292969 C 17.890625 15.292969 17.890625 15.292969 17.871094 15.292969 C 17.847656 15.226562 17.804688 15.183594 17.761719 15.117188 C 17.695312 15.03125 17.632812 14.96875 17.546875 14.902344 C 17.566406 14.816406 17.566406 14.730469 17.566406 14.621094 C 17.566406 14.535156 17.546875 14.449219 17.523438 14.382812 C 17.566406 14.320312 17.632812 14.253906 17.695312 14.167969 Z M 17.695312 14.167969 "/>
<path style=" stroke:none;fill-rule:nonzero;fill:rgb(100%,100%,100%);fill-opacity:1;" d="M 10.925781 24.050781 C 11.035156 24.246094 11.230469 24.398438 11.445312 24.460938 L 24.835938 28.441406 C 24.921875 28.464844 25.007812 28.484375 25.070312 28.484375 C 25.441406 28.484375 25.785156 28.246094 25.894531 27.859375 L 30.304688 13.042969 C 30.371094 12.824219 30.347656 12.589844 30.242188 12.394531 C 30.132812 12.199219 29.9375 12.046875 29.722656 11.984375 L 16.335938 7.980469 C 16.246094 7.960938 16.160156 7.9375 16.097656 7.9375 C 15.726562 7.9375 15.382812 8.175781 15.273438 8.566406 L 10.863281 23.402344 C 10.796875 23.617188 10.820312 23.855469 10.925781 24.050781 Z M 16.097656 8.824219 L 29.484375 12.804688 L 26.390625 23.207031 L 26.175781 22.558594 C 26.132812 22.429688 26.046875 22.34375 25.914062 22.300781 C 25.785156 22.257812 25.65625 22.257812 25.546875 22.34375 L 24.789062 22.796875 L 23.472656 15.898438 C 23.449219 15.746094 23.34375 15.617188 23.191406 15.574219 C 23.039062 15.53125 22.886719 15.550781 22.757812 15.660156 L 18 19.703125 L 17.414062 18.925781 C 17.265625 18.730469 17.003906 18.6875 16.808594 18.839844 L 15.402344 19.878906 L 14.710938 18.621094 C 14.648438 18.515625 14.558594 18.449219 14.453125 18.40625 C 14.34375 18.382812 14.214844 18.382812 14.128906 18.449219 L 13.046875 19.097656 Z M 12.65625 20.351562 L 14.171875 19.464844 L 14.886719 20.765625 C 14.886719 20.765625 14.886719 20.765625 14.886719 20.785156 C 14.886719 20.808594 14.90625 20.808594 14.90625 20.828125 C 14.90625 20.851562 14.929688 20.851562 14.929688 20.871094 C 14.929688 20.871094 14.929688 20.894531 14.949219 20.894531 C 14.992188 20.9375 15.058594 20.980469 15.121094 21 C 15.121094 21 15.121094 21 15.144531 21 C 15.167969 21 15.210938 21.023438 15.230469 21.023438 C 15.296875 21.023438 15.359375 21 15.425781 20.980469 C 15.425781 20.980469 15.445312 20.980469 15.445312 20.957031 C 15.445312 20.957031 15.46875 20.957031 15.46875 20.9375 L 16.917969 19.855469 L 17.503906 20.613281 L 18.28125 22.214844 C 18.34375 22.363281 18.519531 22.449219 18.671875 22.449219 C 18.734375 22.449219 18.800781 22.429688 18.863281 22.40625 C 19.082031 22.300781 19.167969 22.039062 19.058594 21.824219 L 18.410156 20.484375 L 22.714844 16.804688 L 23.949219 23.292969 L 21.480469 24.765625 C 21.285156 24.894531 21.199219 25.15625 21.332031 25.347656 C 21.417969 25.480469 21.546875 25.566406 21.699219 25.566406 C 21.785156 25.566406 21.847656 25.542969 21.914062 25.5 L 25.441406 23.382812 L 25.828125 24.550781 C 25.851562 24.59375 25.851562 24.613281 25.871094 24.65625 L 24.984375 27.640625 L 11.683594 23.640625 Z M 12.65625 20.351562 "/>
</g>
</svg>
