<?xml version="1.0" encoding="UTF-8"?>
<svg xmlns="http://www.w3.org/2000/svg" xmlns:xlink="http://www.w3.org/1999/xlink" width="37.5pt" height="37.499999pt" viewBox="0 0 37.5 37.499999" version="1.2">
<defs>
<clipPath id="clip1">
  <path d="M 6.734375 7.558594 L 30.734375 7.558594 L 30.734375 14 L 6.734375 14 Z M 6.734375 7.558594 "/>
</clipPath>
<clipPath id="clip2">
  <path d="M 6.769531 24 L 30.695312 24 L 30.695312 30.058594 L 6.769531 30.058594 Z M 6.769531 24 "/>
</clipPath>
<clipPath id="clip3">
  <path d="M 6.734375 15 L 30.734375 15 L 30.734375 23 L 6.734375 23 Z M 6.734375 15 "/>
</clipPath>
</defs>
<g id="surface1">
<path style=" stroke:none;fill-rule:nonzero;fill:rgb(45.098877%,45.098877%,45.098877%);fill-opacity:1;" d="M 18.75 1.351562 C 18.179688 1.351562 17.613281 1.378906 17.042969 1.433594 C 16.476562 1.488281 15.914062 1.574219 15.355469 1.683594 C 14.796875 1.796875 14.246094 1.933594 13.699219 2.097656 C 13.152344 2.265625 12.617188 2.457031 12.089844 2.675781 C 11.566406 2.890625 11.050781 3.136719 10.546875 3.40625 C 10.046875 3.671875 9.558594 3.964844 9.082031 4.28125 C 8.609375 4.597656 8.152344 4.9375 7.710938 5.300781 C 7.269531 5.660156 6.847656 6.042969 6.445312 6.445312 C 6.042969 6.847656 5.660156 7.269531 5.300781 7.710938 C 4.9375 8.152344 4.597656 8.609375 4.28125 9.082031 C 3.964844 9.558594 3.671875 10.046875 3.40625 10.546875 C 3.136719 11.050781 2.890625 11.566406 2.675781 12.089844 C 2.457031 12.617188 2.265625 13.152344 2.097656 13.699219 C 1.933594 14.246094 1.796875 14.796875 1.683594 15.355469 C 1.574219 15.914062 1.488281 16.476562 1.433594 17.042969 C 1.378906 17.613281 1.351562 18.179688 1.351562 18.75 C 1.351562 19.320312 1.378906 19.886719 1.433594 20.457031 C 1.488281 21.023438 1.574219 21.585938 1.683594 22.144531 C 1.796875 22.703125 1.933594 23.253906 2.097656 23.800781 C 2.265625 24.347656 2.457031 24.882812 2.675781 25.410156 C 2.890625 25.933594 3.136719 26.449219 3.40625 26.953125 C 3.671875 27.453125 3.964844 27.941406 4.28125 28.417969 C 4.597656 28.890625 4.9375 29.347656 5.300781 29.789062 C 5.660156 30.230469 6.042969 30.652344 6.445312 31.054688 C 6.847656 31.457031 7.269531 31.839844 7.710938 32.199219 C 8.152344 32.5625 8.609375 32.902344 9.082031 33.21875 C 9.558594 33.535156 10.046875 33.828125 10.546875 34.09375 C 11.050781 34.363281 11.566406 34.605469 12.089844 34.824219 C 12.617188 35.042969 13.152344 35.234375 13.699219 35.402344 C 14.246094 35.566406 14.796875 35.703125 15.355469 35.816406 C 15.914062 35.925781 16.476562 36.011719 17.042969 36.066406 C 17.613281 36.121094 18.179688 36.148438 18.75 36.148438 C 19.320312 36.148438 19.886719 36.121094 20.457031 36.066406 C 21.023438 36.011719 21.585938 35.925781 22.144531 35.816406 C 22.703125 35.703125 23.253906 35.566406 23.800781 35.402344 C 24.347656 35.234375 24.882812 35.042969 25.410156 34.824219 C 25.933594 34.605469 26.449219 34.363281 26.953125 34.09375 C 27.453125 33.828125 27.941406 33.535156 28.417969 33.21875 C 28.890625 32.902344 29.347656 32.5625 29.789062 32.199219 C 30.230469 31.839844 30.652344 31.457031 31.054688 31.054688 C 31.457031 30.652344 31.839844 30.230469 32.199219 29.789062 C 32.5625 29.347656 32.902344 28.890625 33.21875 28.417969 C 33.535156 27.941406 33.828125 27.453125 34.09375 26.953125 C 34.363281 26.449219 34.605469 25.933594 34.824219 25.410156 C 35.042969 24.882812 35.234375 24.347656 35.402344 23.800781 C 35.566406 23.253906 35.703125 22.703125 35.816406 22.144531 C 35.925781 21.585938 36.011719 21.023438 36.066406 20.457031 C 36.121094 19.886719 36.148438 19.320312 36.148438 18.75 C 36.148438 18.179688 36.121094 17.613281 36.066406 17.042969 C 36.011719 16.476562 35.925781 15.914062 35.816406 15.355469 C 35.703125 14.796875 35.566406 14.246094 35.402344 13.699219 C 35.234375 13.152344 35.042969 12.617188 34.824219 12.089844 C 34.605469 11.566406 34.363281 11.050781 34.09375 10.546875 C 33.828125 10.046875 33.535156 9.558594 33.21875 9.082031 C 32.902344 8.609375 32.5625 8.152344 32.199219 7.710938 C 31.839844 7.269531 31.457031 6.847656 31.054688 6.445312 C 30.652344 6.042969 30.230469 5.660156 29.789062 5.300781 C 29.347656 4.9375 28.890625 4.597656 28.417969 4.28125 C 27.941406 3.964844 27.453125 3.671875 26.953125 3.40625 C 26.449219 3.136719 25.933594 2.890625 25.410156 2.675781 C 24.882812 2.457031 24.347656 2.265625 23.800781 2.097656 C 23.253906 1.933594 22.703125 1.796875 22.144531 1.683594 C 21.585938 1.574219 21.023438 1.488281 20.457031 1.433594 C 19.886719 1.378906 19.320312 1.351562 18.75 1.351562 Z M 18.75 1.351562 "/>
<g clip-path="url(#clip1)" clip-rule="nonzero">
<path style=" stroke:none;fill-rule:nonzero;fill:rgb(100%,100%,100%);fill-opacity:1;" d="M 12.742188 9.953125 C 13.300781 9.953125 13.746094 10.40625 13.746094 10.964844 C 13.746094 11.523438 13.300781 11.976562 12.742188 11.976562 C 12.1875 11.976562 11.738281 11.523438 11.738281 10.964844 C 11.738281 10.40625 12.1875 9.953125 12.742188 9.953125 Z M 7.765625 11.96875 L 9.917969 11.96875 C 10.464844 13.539062 12.175781 14.367188 13.734375 13.8125 C 14.59375 13.511719 15.265625 12.832031 15.570312 11.96875 L 29.699219 11.96875 C 30.25 11.96875 30.695312 11.519531 30.695312 10.964844 C 30.695312 10.410156 30.25 9.960938 29.699219 9.960938 L 15.570312 9.960938 C 15.019531 8.390625 13.3125 7.5625 11.75 8.117188 C 10.894531 8.417969 10.21875 9.097656 9.917969 9.960938 L 7.765625 9.960938 C 7.214844 9.960938 6.769531 10.410156 6.769531 10.964844 C 6.769531 11.519531 7.214844 11.96875 7.765625 11.96875 "/>
</g>
<g clip-path="url(#clip2)" clip-rule="nonzero">
<path style=" stroke:none;fill-rule:nonzero;fill:rgb(100%,100%,100%);fill-opacity:1;" d="M 16.746094 28.050781 C 16.191406 28.050781 15.742188 27.597656 15.742188 27.039062 C 15.742188 26.480469 16.191406 26.027344 16.746094 26.027344 C 17.300781 26.027344 17.753906 26.480469 17.753906 27.039062 C 17.753906 27.597656 17.300781 28.050781 16.746094 28.050781 Z M 29.699219 26.035156 L 19.574219 26.035156 C 19.023438 24.464844 17.316406 23.640625 15.753906 24.191406 C 14.898438 24.496094 14.222656 25.171875 13.921875 26.035156 L 7.765625 26.035156 C 7.214844 26.035156 6.769531 26.484375 6.769531 27.039062 C 6.769531 27.59375 7.214844 28.042969 7.765625 28.042969 L 13.921875 28.042969 C 14.46875 29.613281 16.179688 30.4375 17.738281 29.886719 C 18.597656 29.585938 19.269531 28.90625 19.574219 28.042969 L 29.699219 28.042969 C 30.25 28.042969 30.695312 27.59375 30.695312 27.039062 C 30.695312 26.484375 30.25 26.035156 29.699219 26.035156 "/>
</g>
<g clip-path="url(#clip3)" clip-rule="nonzero">
<path style=" stroke:none;fill-rule:nonzero;fill:rgb(100%,100%,100%);fill-opacity:1;" d="M 24.722656 20.015625 C 24.167969 20.015625 23.714844 19.5625 23.714844 19.003906 C 23.714844 18.445312 24.167969 17.992188 24.722656 17.992188 C 25.277344 17.992188 25.726562 18.445312 25.726562 19.003906 C 25.726562 19.5625 25.277344 20.015625 24.722656 20.015625 Z M 29.699219 17.996094 L 27.546875 17.996094 C 27 16.429688 25.289062 15.601562 23.730469 16.15625 C 22.875 16.457031 22.199219 17.136719 21.898438 17.996094 L 7.765625 17.996094 C 7.214844 17.996094 6.769531 18.449219 6.769531 19.003906 C 6.769531 19.558594 7.214844 20.003906 7.765625 20.003906 L 21.898438 20.003906 C 22.445312 21.578125 24.152344 22.402344 25.714844 21.851562 C 26.570312 21.546875 27.246094 20.871094 27.546875 20.003906 L 29.699219 20.003906 C 30.25 20.003906 30.695312 19.558594 30.695312 19.003906 C 30.695312 18.449219 30.25 17.996094 29.699219 17.996094 "/>
</g>
</g>
</svg>
