<?xml version="1.0" encoding="UTF-8"?>
<svg xmlns="http://www.w3.org/2000/svg" xmlns:xlink="http://www.w3.org/1999/xlink" width="375pt" height="374.999991pt" viewBox="0 0 375 374.999991" version="1.2">
<defs>
<clipPath id="clip1">
  <path d="M 37.5 37.5 L 337.5 37.5 L 337.5 337.5 L 37.5 337.5 Z M 37.5 37.5 "/>
</clipPath>
</defs>
<g id="surface1">
<g clip-path="url(#clip1)" clip-rule="nonzero">
<path style=" stroke:none;fill-rule:nonzero;fill:rgb(100%,100%,100%);fill-opacity:1;" d="M 337.5 187.5 C 337.5 104.671875 270.328125 37.5 187.5 37.5 C 104.671875 37.5 37.5 104.671875 37.5 187.5 C 37.5 270.328125 104.671875 337.5 187.5 337.5 C 270.328125 337.5 337.5 270.328125 337.5 187.5 Z M 337.5 187.5 "/>
</g>
<path style=" stroke:none;fill-rule:nonzero;fill:rgb(78.819275%,40.779114%,78.819275%);fill-opacity:1;" d="M 261.683594 179.761719 L 155.941406 114.765625 C 153.039062 113.015625 149.230469 112.894531 146.265625 114.585938 C 143.242188 116.277344 141.371094 119.484375 141.371094 122.929688 L 141.371094 252.3125 C 141.371094 255.757812 143.242188 258.964844 146.207031 260.65625 C 147.65625 261.441406 149.230469 261.863281 150.863281 261.863281 C 152.613281 261.863281 154.308594 261.382812 155.820312 260.472656 L 261.5625 196.023438 C 264.40625 194.332031 266.15625 191.1875 266.15625 187.921875 C 266.277344 184.597656 264.523438 181.453125 261.683594 179.761719 Z M 261.683594 179.761719 "/>
</g>
</svg>
